:version 1.10
:name ASF
:units
  mass 1
  length 1
  angle deg
:documentation
  ASF file generated by Kaydara
:root
  axis xyz
  order  tx ty tz rx ry rz
  position 0 0 0
  orientation 0 0 0
:bonedata
  begin
    id 1
    name lfemurDummy
    direction 0.61522 -0.761478 0.204097
    length 5.68318
    axis 0 -0 0 xyz
  end
  begin
    id 2
    name lfemur
    direction 0.34202 -0.939693 -5.84747e-008
    length 16.9147
    axis 0 -0 20 xyz
    dof rx ry rz
    limits( -inf , inf )
( -inf , inf )
( -inf , inf )

  end
  begin
    id 3
    name ltibia
    direction 0.34202 -0.939693 1.20839e-009
    length 18.0532
    axis 0 -0 20 xyz
    dof rz ry rx
    limits( -inf , inf )
( -inf , inf )
( -inf , inf )

  end
  begin
    id 4
    name lfoot
    direction 0.0841971 -0.23133 0.969225
    length 5.23822
    axis -90 7.62852e-016 20 xyz
    dof ry rx rz
    limits( -inf , inf )
( -inf , inf )
( -inf , inf )

  end
  begin
    id 5
    name ltoes
    direction 0 0 0
    length 0
    axis 0 0 0 xyz
    dof rz ry rx
    limits( -inf , inf )
( -inf , inf )
( -inf , inf )

  end
  begin
    id 6
    name rfemurDummy
    direction -0.625247 -0.75382 0.202044
    length 5.74091
    axis 0 -0 0 xyz
  end
  begin
    id 7
    name rfemur
    direction -0.34202 -0.939693 -1.47013e-008
    length 16.4922
    axis 0 -0 -20 xyz
    dof rx ry rz
    limits( -inf , inf )
( -inf , inf )
( -inf , inf )

  end
  begin
    id 8
    name rtibia
    direction -0.34202 -0.939693 -7.74345e-010
    length 18.2421
    axis 0 -0 -20 xyz
    dof rz ry rx
    limits( -inf , inf )
( -inf , inf )
( -inf , inf )

  end
  begin
    id 9
    name rfoot
    direction -0.124331 -0.341598 0.931586
    length 5.45787
    axis -90 -7.62852e-016 -20 xyz
    dof ry rx rz
    limits( -inf , inf )
( -inf , inf )
( -inf , inf )

  end
  begin
    id 10
    name rtoes
    direction 0 0 0
    length 0
    axis 0 0 0 xyz
    dof rz ry rx
    limits( -inf , inf )
( -inf , inf )
( -inf , inf )

  end
  begin
    id 11
    name lowerbackDummy
    direction 0 0 0
    length 0
    axis 0 -0 0 xyz
  end
  begin
    id 12
    name lowerback
    direction -0.0218484 0.994884 -0.0986304
    length 4.45607
    axis 0 -0 0 xyz
    dof rx ry rz
    limits( -inf , inf )
( -inf , inf )
( -inf , inf )

  end
  begin
    id 13
    name upperback
    direction -0.00973057 0.999717 -0.0217111
    length 4.47449
    axis 0 -0 0 xyz
    dof rx ry rz
    limits( -inf , inf )
( -inf , inf )
( -inf , inf )

  end
  begin
    id 14
    name thorax
    direction -0.000928171 0.999699 0.0245198
    length 4.50973
    axis 0 -0 0 xyz
    dof rx ry rz
    limits( -inf , inf )
( -inf , inf )
( -inf , inf )

  end
  begin
    id 15
    name rclavicle
    direction -0.9009 0.425937 -0.0834055
    length 7.28587
    axis 0 -0 0 xyz
    dof rx ry rz
    limits( -inf , inf )
( -inf , inf )
( -inf , inf )

  end
  begin
    id 16
    name rhumerus
    direction -1 -2.23604e-007 -1.42637e-007
    length 13.5704
    axis 180 30 90 xyz
    dof rx ry rz
    limits( -inf , inf )
( -inf , inf )
( -inf , inf )

  end
  begin
    id 17
    name rradius
    direction -1 5.68281e-008 -4.4952e-007
    length 8.06782
    axis 180 30 90 xyz
    dof rz ry rx
    limits( -inf , inf )
( -inf , inf )
( -inf , inf )

  end
  begin
    id 18
    name rwrist
    direction -1 1.51393e-007 1.38143e-007
    length 4.03391
    axis -90 -90 0 xyz
    dof rz rx ry
    limits( -inf , inf )
( -inf , inf )
( -inf , inf )

  end
  begin
    id 19
    name rthumb
    direction 0 0 0
    length 0
    axis 0 0 0 xyz
    dof ry rx rz
    limits( -inf , inf )
( -inf , inf )
( -inf , inf )

  end
  begin
    id 20
    name rhand
    direction -1 -3.34077e-007 -5.59631e-007
    length 1.29744
    axis -90 -90 0 xyz
    dof ry rx rz
    limits( -inf , inf )
( -inf , inf )
( -inf , inf )

  end
  begin
    id 21
    name rfingers
    direction 0 0 0
    length 0
    axis 0 0 0 xyz
    dof rz ry rx
    limits( -inf , inf )
( -inf , inf )
( -inf , inf )

  end
  begin
    id 22
    name lclavicle
    direction 0.940017 0.332249 -0.0773232
    length 8.29589
    axis 0 -0 0 xyz
    dof rx ry rz
    limits( -inf , inf )
( -inf , inf )
( -inf , inf )

  end
  begin
    id 23
    name lhumerus
    direction 1 7.41158e-008 -1.44768e-008
    length 12.0042
    axis 180 -30 -90 xyz
    dof rx ry rz
    limits( -inf , inf )
( -inf , inf )
( -inf , inf )

  end
  begin
    id 24
    name lradius
    direction 1 -1.32972e-007 3.10821e-007
    length 8.1902
    axis 180 -30 -90 xyz
    dof rz ry rx
    limits( -inf , inf )
( -inf , inf )
( -inf , inf )

  end
  begin
    id 25
    name lwrist
    direction 1 3.08957e-007 4.01394e-007
    length 4.09509
    axis -90 90 0 xyz
    dof rz rx ry
    limits( -inf , inf )
( -inf , inf )
( -inf , inf )

  end
  begin
    id 26
    name lthumb
    direction 0 0 0
    length 0
    axis 0 0 0 xyz
    dof ry rx rz
    limits( -inf , inf )
( -inf , inf )
( -inf , inf )

  end
  begin
    id 27
    name lhand
    direction 1 -1.64125e-007 -6.99514e-007
    length 1.37229
    axis -90 90 0 xyz
    dof ry rx rz
    limits( -inf , inf )
( -inf , inf )
( -inf , inf )

  end
  begin
    id 28
    name lfingers
    direction 0 0 0
    length 0
    axis 0 0 0 xyz
    dof rz ry rx
    limits( -inf , inf )
( -inf , inf )
( -inf , inf )

  end
  begin
    id 29
    name lowerneck
    direction -0.030798 0.998024 0.0547665
    length 3.93918
    axis 0 -0 0 xyz
    dof rx ry rz
    limits( -inf , inf )
( -inf , inf )
( -inf , inf )

  end
  begin
    id 30
    name upperneck
    direction 0.0531588 0.996611 -0.0627736
    length 3.95491
    axis 0 -0 0 xyz
    dof rx ry rz
    limits( -inf , inf )
( -inf , inf )
( -inf , inf )

  end
  begin
    id 31
    name head
    direction 0 0 0
    length 0
    axis 0 0 0 xyz
    dof rx ry rz
    limits( -inf , inf )
( -inf , inf )
( -inf , inf )

  end
:hierarchy
  begin
    root lfemurDummy rfemurDummy lowerbackDummy
    lfemurDummy lfemur
    lfemur ltibia
    ltibia lfoot
    lfoot ltoes
    rfemurDummy rfemur
    rfemur rtibia
    rtibia rfoot
    rfoot rtoes
    lowerbackDummy lowerback
    lowerback upperback
    upperback thorax
    thorax rclavicle lclavicle lowerneck
    rclavicle rhumerus
    rhumerus rradius
    rradius rwrist
    rwrist rthumb rhand
    rhand rfingers
    lclavicle lhumerus
    lhumerus lradius
    lradius lwrist
    lwrist lthumb lhand
    lhand lfingers
    lowerneck upperneck
    upperneck head
  end

:SAMPLES-PER-SECOND 30
:FULLY-SPECIFIED
:DEGREES
94
root  13.19402259 37.07689 2.790711057 -12.602005 -41.102005 10.69000244
lowerback  11.13160038 5.695429802 -3.384870052
upperback  4.171470165 7.044149876 -2.360909939
thorax  -1.945930004 3.471019983 -1.454710007
lowerneck  -7.780210018 3.410480022 -7.587850094
upperneck  16.60099983 4.379149914 7.912660122
head  5.919799805 2.25364995 4.08412981
lclavicle  0 -9.442270133e-015 7.951389973e-016
lhumerus  24.63610077 -9.445799828 78.88760376
lradius  2.191804392e-031 -2.768544301e-031 128.3679962
lwrist  -7.062250077e-031 -8.827812596e-032 20.17620087
lhand  -1.496451383e-031 -27.76390076 20.11240005
lfingers  90 7.125020027 -90
lthumb  89.89689403 5.08795885 91.16245106
rclavicle  0 -9.442270133e-015 7.951389973e-016
rhumerus  35.94879913 11.6590004 -76.04759979
rradius  -1.059067058e-031 3.368563641e-031 107.4530029
rwrist  7.062250077e-031 5.296687558e-031 -54.3207016
rhand  -7.920061211e-032 -33.2840004 9.303460121
rfingers  -90 -7.125020027 -90
rthumb  -92.93752616 -24.25625642 -97.11982154
rfemur  -1.294080019 15.15820026 -1.575909972
rtibia  -0 0 54.24720001
rfoot  -0 -28.66909981 -17.31060028
rtoes  5.373923086 19.29304026 -105.8922705
lfemur  -21.61529922 -3.844540119 -6.914869785
ltibia  -0 0 52.20940018
lfoot  4.519771254e-032 -12.42529964 -5.477530003
ltoes  -4.250644065 -19.5611806 -102.515957
95
root  13.14395544 37.00533289 2.827866622 -13.93899536 -41.20500183 12.26400757
lowerback  11.08399963 5.807940006 -4.458869934
upperback  4.119569778 7.071730137 -2.514899969
thorax  -2.079570055 3.477689981 -1.034909964
lowerneck  -7.594649792 3.534780025 -7.53373003
upperneck  16.69269943 4.529329777 7.880440235
head  5.905940056 2.323420048 4.071060181
lclavicle  0 -9.442270133e-015 7.951389973e-016
lhumerus  23.73800087 -9.269769669 78.84580231
lradius  2.215448718e-031 -2.749660164e-031 128.8589935
lwrist  -1.412450015e-030 1.765562519e-031 19.86170006
lhand  -1.496451383e-031 -27.76390076 20.11240005
lfingers  90 7.125020027 -90
lthumb  89.89689403 5.08795885 91.16245106
rclavicle  0 -9.442270133e-015 7.951389973e-016
rhumerus  35.09629822 12.08199978 -76.77760315
rradius  -1.078978888e-031 3.362238629e-031 107.7919998
rwrist  7.062250077e-031 7.062250077e-031 -54.29439926
rhand  -7.920061211e-032 -33.2840004 9.303460121
rfingers  -90 -7.125020027 -90
rthumb  -92.93752616 -24.25625642 -97.11982154
rfemur  -0.842433989 15.61340046 -2.879209995
rtibia  -0 0 54.12739944
rfoot  -0 -28.23620033 -17.94709969
rtoes  5.373923086 19.29304026 -105.8922705
lfemur  -20.0951004 -4.103250027 -8.280440331
ltibia  -0 0 50.84379959
lfoot  4.544677658e-032 -13.77810001 -5.605830193
ltoes  -4.250644065 -19.5611806 -102.515957
96
root  13.11240008 36.92377646 2.821577816 -14.57800293 -41.20700073 13.16299438
lowerback  11.01119995 5.775330067 -5.041920185
upperback  4.019090176 6.963659763 -2.617010117
thorax  -2.196719885 3.422460079 -0.8093349934
lowerneck  -7.156589985 3.75357008 -7.621819973
upperneck  16.31060028 4.788199902 8.098349571
head  5.679409981 2.457679987 4.144219875
lclavicle  0 -9.442270133e-015 7.951389973e-016
lhumerus  23.00250053 -9.126469612 78.72499847
lradius  2.24350272e-031 -2.726818582e-031 129.4459991
lwrist  -7.062250077e-031 -8.827812596e-032 19.4321003
lhand  -1.496451383e-031 -27.76390076 20.11240005
lfingers  90 7.125020027 -90
lthumb  89.89689403 5.08795885 91.16245106
rclavicle  0 -9.442270133e-015 7.951389973e-016
rhumerus  34.4233017 12.49709988 -77.54570007
rradius  -1.101195521e-031 3.355027938e-031 108.1709976
rwrist  0 7.062250077e-031 -54.09000015
rhand  -7.920061211e-032 -33.2840004 9.303460121
rfingers  -90 -7.125020027 -90
rthumb  -92.93752616 -24.25625642 -97.11982154
rfemur  -0.8095080256 15.63560009 -3.69671011
rtibia  -0 0 54.39970016
rfoot  -0 -28.04800034 -17.93160057
rtoes  5.373923086 19.29304026 -105.8922705
lfemur  -19.37290001 -4.02008009 -9.09924984
ltibia  -0 0 49.97399902
lfoot  4.560102401e-032 -14.54740047 -5.438499928
ltoes  -4.250644065 -19.5611806 -102.515957
97
root  13.09075543 36.83977803 2.810222145 -15.69599915 -40.92700195 14.47099304
lowerback  11.16479969 5.706989765 -5.854899883
upperback  4.099639893 6.761620045 -2.885020018
thorax  -2.246819973 3.314870119 -0.6285139918
lowerneck  -6.818970203 4.004000187 -7.659070015
upperneck  15.71290016 5.082250118 8.437319756
head  5.397840023 2.624069929 4.243179798
lclavicle  0 -9.442270133e-015 7.951389973e-016
lhumerus  22.60350037 -8.997349739 78.46289825
lradius  2.261727638e-031 -2.711721248e-031 129.8300018
lwrist  0 -0 19.25329971
lhand  -1.496451383e-031 -27.76390076 20.11240005
lfingers  90 7.125020027 -90
lthumb  89.89689403 5.08795885 91.16245106
rclavicle  0 -9.442270133e-015 7.951389973e-016
rhumerus  33.93920135 12.77569962 -78.28669739
rradius  -1.123656391e-031 3.347572307e-031 108.5550003
rwrist  7.062250077e-031 5.296687558e-031 -53.9192009
rhand  -7.920061211e-032 -33.2840004 9.303460121
rfingers  -90 -7.125020027 -90
rthumb  -92.93752616 -24.25625642 -97.11982154
rfemur  -0.5283539891 15.37460041 -4.94671011
rtibia  -0 0 54.82820129
rfoot  -0 -28.75769997 -17.4878006
rtoes  5.373923086 19.29304026 -105.8922705
lfemur  -18.92320061 -3.981280088 -10.44989967
ltibia  -0 0 49.92039871
lfoot  4.5802797e-032 -15.49020004 -4.181459904
ltoes  -4.250644065 -19.5611806 -102.515957
